<?xml version="1.0" encoding="iso-8859-1"?>
<!-- Generator: Adobe Illustrator 19.0.0, SVG Export Plug-In . SVG Version: 6.00 Build 0)  -->
<svg version="1.1" id="Layer_1" xmlns="http://www.w3.org/2000/svg" xmlns:xlink="http://www.w3.org/1999/xlink" x="0px" y="0px"
	 viewBox="0 0 460 460" style="enable-background:new 0 0 460 460;" xml:space="preserve">
<g>
	<path style="fill:#89EBFF;" d="M58.289,383L230,393l229.981-161.519c0.003-0.495,0.019-0.986,0.019-1.481
		C460,102.975,357.026,0,230,0S0,102.975,0,230C0,288.751,22.04,342.348,58.289,383z"/>
	<path style="fill:#2DB8D4;" d="M304.5,76v19.5L230,21l5.071,133.571L155.5,76v166.227L58,351l96.199,96.199
		C177.936,455.482,203.439,460,230,460c126.53,0,229.183-102.177,229.981-228.519L304.5,76z"/>
	<rect x="289.5" y="305" style="fill:#FF6E36;" width="30" height="86"/>
	<polygon style="fill:#557714;" points="304.5,351 316.412,213.5 304.5,76 229,216 254.492,216 218,283.5 243.563,283.5 207,351 	
		"/>
	<polygon style="fill:#405A0F;" points="365.438,283.5 391,283.5 354.508,216 380,216 304.5,76 304.5,351 402,351 	"/>
	<rect x="140.5" y="305" style="fill:#FF984C;" width="30" height="86"/>
	<polygon style="fill:#7FB21E;" points="155.5,351 167.412,213.5 155.5,76 80,216 105.492,216 69,283.5 94.563,283.5 58,351 	"/>
	<polygon style="fill:#557714;" points="216.438,283.5 242,283.5 205.508,216 231,216 155.5,76 155.5,351 253,351 	"/>
	<rect x="215" y="305" style="fill:#FF5347;" width="30" height="86"/>
	<polygon style="fill:#405A0F;" points="230,351 244.295,186 230,21 139.4,189 169.991,189 126.2,270 156.875,270 113,351 	"/>
	<polygon style="fill:#2A3C0A;" points="303.125,270 333.8,270 290.009,189 320.6,189 230,21 230,351 347,351 	"/>
	<path style="fill:#557714;" d="M58.289,383c42.123,47.241,103.438,77,171.711,77l10-38.5L230,383H58.289z"/>
	<path style="fill:#405A0F;" d="M230,383v77c68.274,0,129.588-29.759,171.711-77H230z"/>
</g>
<g>
</g>
<g>
</g>
<g>
</g>
<g>
</g>
<g>
</g>
<g>
</g>
<g>
</g>
<g>
</g>
<g>
</g>
<g>
</g>
<g>
</g>
<g>
</g>
<g>
</g>
<g>
</g>
<g>
</g>
</svg>
