<?xml version="1.0" encoding="iso-8859-1"?>
<!-- Generator: Adobe Illustrator 19.0.0, SVG Export Plug-In . SVG Version: 6.00 Build 0)  -->
<svg version="1.1" id="Layer_1" xmlns="http://www.w3.org/2000/svg" xmlns:xlink="http://www.w3.org/1999/xlink" x="0px" y="0px"
	 viewBox="0 0 468.352 468.352" style="enable-background:new 0 0 468.352 468.352;" xml:space="preserve">
<g>
	<g>
		<g>
			<path d="M460.852,389.566h-19.653V169.323c0-14.215-11.564-25.78-25.779-25.78h-22.148v-86.87
				c0-16.757-13.633-30.391-30.391-30.391h-86.219c-16.758,0-30.391,13.633-30.391,30.391v86.87H52.938
				c-14.215,0-25.78,11.565-25.78,25.78v220.243H7.5c-4.143,0-7.5,3.358-7.5,7.5c0,24.815,20.188,45.004,45.004,45.004h378.344
				c24.815,0,45.004-20.188,45.004-45.004C468.352,392.924,464.994,389.566,460.852,389.566z M276.661,41.282h86.219
				c5.763,0,10.79,3.189,13.427,7.891H263.234C265.871,44.471,270.898,41.282,276.661,41.282z M261.271,64.173h117v102.456
				l-12.644-15.278c-1.426-1.722-3.544-2.719-5.779-2.718c-2.234,0-4.353,0.997-5.777,2.719l-35.913,43.406l-24.031-29.037
				c-1.426-1.722-3.544-2.719-5.779-2.718s-4.354,0.998-5.778,2.72l-21.299,25.752V64.173z M376.307,228.392
				c-2.637,4.702-7.664,7.891-13.427,7.891h-86.219c-5.763,0-10.79-3.189-13.427-7.891H376.307z M262.609,213.392l25.741-31.123
				l20.073,24.255l-5.682,6.868H262.609z M322.209,213.392l37.641-45.494l18.421,22.259v23.235H322.209z M276.661,251.283h86.219
				c16.758,0,30.391-13.633,30.391-30.391v-39.349h9.928v185.02h-27.852l-87.09-105.251c-1.425-1.722-3.543-2.719-5.778-2.719
				c-2.234,0-4.354,0.997-5.778,2.719l-63.739,77.03l-43.915-53.07c-1.425-1.722-3.544-2.719-5.778-2.719
				c-2.235,0-4.354,0.997-5.779,2.719l-67.25,81.291H65.158v-185.02H246.27v39.349C246.27,237.649,259.903,251.283,276.661,251.283z
				 M355.878,366.563H209.079l73.4-88.706L355.878,366.563z M203.227,350.106l-13.617,16.457h-79.903l53.563-64.745L203.227,350.106
				z M42.158,169.323c0-5.944,4.836-10.78,10.78-10.78H246.27v8H57.658c-4.143,0-7.5,3.358-7.5,7.5v200.02
				c0,4.142,3.357,7.5,7.5,7.5h353.04c4.143,0,7.5-3.358,7.5-7.5v-200.02c0-4.142-3.357-7.5-7.5-7.5H393.27v-8h22.148
				c5.943,0,10.779,4.836,10.779,10.78v220.24H42.158V169.323z M423.348,427.069H45.004c-13.955,0-25.716-9.577-29.055-22.504
				h436.453C449.063,417.492,437.303,427.069,423.348,427.069z"/>
			<path d="M181.916,204.916c-15.522,0-28.15,12.628-28.15,28.151c0,15.523,12.628,28.151,28.15,28.151s28.15-12.628,28.15-28.151
				C210.066,217.544,197.438,204.916,181.916,204.916z M181.916,246.217c-7.251,0-13.15-5.899-13.15-13.151
				s5.899-13.151,13.15-13.151s13.15,5.899,13.15,13.151S189.167,246.217,181.916,246.217z"/>
			<path d="M299.535,156.209c10.965,0,19.886-8.921,19.886-19.886c0-10.965-8.921-19.886-19.886-19.886
				c-10.966,0-19.887,8.921-19.887,19.886C279.648,147.288,288.569,156.209,299.535,156.209z M299.535,131.436
				c2.694,0,4.886,2.192,4.886,4.886c0,2.694-2.191,4.886-4.886,4.886c-2.695,0-4.887-2.192-4.887-4.886
				C294.648,133.628,296.841,131.436,299.535,131.436z"/>
		</g>
	</g>
</g>
<g>
</g>
<g>
</g>
<g>
</g>
<g>
</g>
<g>
</g>
<g>
</g>
<g>
</g>
<g>
</g>
<g>
</g>
<g>
</g>
<g>
</g>
<g>
</g>
<g>
</g>
<g>
</g>
<g>
</g>
</svg>
